<?xml version="1.0" encoding="utf-8"?>
<!-- Generator: Adobe Illustrator 26.3.1, SVG Export Plug-In . SVG Version: 6.00 Build 0)  -->
<svg version="1.1" id="Layer_1" xmlns="http://www.w3.org/2000/svg" xmlns:xlink="http://www.w3.org/1999/xlink" x="0px" y="0px"
	 viewBox="0 0 56.8 65.1" style="enable-background:new 0 0 56.8 65.1;" xml:space="preserve">
<style type="text/css">
	.st0{fill:#C10204;}
</style>
<g id="Capa_2">
	<g id="Capa_1-2">
		<g id="Director_Logo">
			<g id="Group_2">
				<g id="Director_logo-2">
					<path id="Path_1" class="st0" d="M32.2,0c4.4-0.1,8.5,2.4,10.4,6.4c0.8,1.7,1.2,3.5,1.2,5.3c0,8.6,0,17.3,0,25.9
						c0.2,2.7,0,5.4-0.6,8c-2.2,8.4-7.4,14.2-15.8,16.2c-1.9,0.5-2.3,0.6-6.4,0.7c-5.5-0.1-10.6-2.4-14.5-6.3
						c-6.2-6-8.2-15.1-5-23.1c3.9-9.2,10.6-12.8,17.1-13.7c1.8-0.2,3.6-0.4,5.4-0.3c2.7,0,5.4,0,8.2,0C32.2,12.6,32.2,6.3,32.2,0z
						 M32.5,30.5c-3.9,0-7.4-0.1-11,0c-6.2,0.2-11,6.7-8.8,13.2c1.5,4.5,6,7.2,10.6,6.7c4.4-0.4,8-3.8,8.7-8.2
						C32.5,38.3,32.3,34.4,32.5,30.5L32.5,30.5z"/>
					<path id="Path_2" class="st0" d="M46.8,29.5v-10h10C57.3,24.7,52.3,30,46.8,29.5z"/>
				</g>
			</g>
		</g>
	</g>
</g>
</svg>
